<svg xmlns="http://www.w3.org/2000/svg" width="647" height="162" viewBox="0 0 647 162" fill="none">
    <path fill-rule="evenodd" clip-rule="evenodd" d="M414.3 42.9V56.1H439.9V104.4H453.8V56.1H478.6V42.9H414.3Z" fill="#C8102E"/>
    <path fill-rule="evenodd" clip-rule="evenodd" d="M625.1 100.7C629.6 105.1 630.8 105.9 635.2 105.9C641.1 105.9 644 100.8 644 97.1001V43.0001H629.4V86.2001L591.4 46.7001C586.9 42.3001 585.5 41.6001 581.2 41.6001C575.3 41.6001 572.4 46.7001 572.4 50.4001V104.5H587V61.3001L625.1 100.7Z" fill="#C8102E"/>
    <path fill-rule="evenodd" clip-rule="evenodd" d="M523.3 40.7001C498.9 40.7001 485.3 46.7001 485.3 73.6001C485.3 100.5 499 106.5 523.3 106.5C547.7 106.5 561.3 100.5 561.3 73.6001C561.3 46.7001 547.6 40.7001 523.3 40.7001ZM523.3 92.7001C508.3 92.7001 500.6 91.6001 500.6 73.7001C500.6 55.8001 508.2 54.7001 523.3 54.7001C538.3 54.7001 546.2 55.8001 546.2 73.7001C546.2 91.6001 538.3 92.7001 523.3 92.7001Z" fill="#C8102E"/>
    <path fill-rule="evenodd" clip-rule="evenodd" d="M305.2 104.4H319.1V42.9H305.2V104.4Z" fill="#C8102E"/>
    <path fill-rule="evenodd" clip-rule="evenodd" d="M236.5 56.1001H264.5C272.8 56.1001 273.8 59.8001 273.8 63.4001C273.8 67.0001 272.7 70.7001 264.6 70.7001H236.5V56.1001ZM274.9 81.1001C283.7 78.9001 288.7 72.2001 288.7 63.1001C288.7 50.7001 280.5 43.0001 267.3 43.0001H223.3V104.5H236.5V82.5001H259.9L274.4 104.5H291.3L274.9 81.1001Z" fill="#C8102E"/>
    <path fill-rule="evenodd" clip-rule="evenodd" d="M376.4 65.8001H364C353.4 65.8001 351.3 63.8001 351.3 60.0001C351.3 55.4001 358.4 53.6001 368.4 53.6001C377.2 53.6001 385.4 55.1001 395.1 59.6001L402.5 49.2001C392 42.9001 381.4 40.7001 368.3 40.7001C348.3 40.7001 336.6 48.1001 336.6 60.7001C336.6 74.4001 347.9 79.1001 362.5 78.9001H376C389.3 78.9001 391.1 80.4001 391.1 85.5001C391.1 90.5001 383.7 93.7001 371.8 93.7001C361.3 93.7001 350.6 91.6001 341.2 85.3001L333.7 95.9001C343.7 103.9 356.1 106.6 371.7 106.6C393.6 106.6 406.1 98.6001 406.1 84.8001C406.2 72.2001 396.2 65.8001 376.4 65.8001Z" fill="#C8102E"/>
    <path fill-rule="evenodd" clip-rule="evenodd" d="M128.1 104.4H145L151.6 93.4H191.1L197.7 104.4H214.5L178.6 45.1C177.1 42.9 174.2 41.4 171.3 41.4C168.4 41.4 165.4 42.9 164 45.1L128.1 104.4ZM171.3 59L184.5 81.7H158.2L171.3 59Z" fill="#C8102E"/>
    <path fill-rule="evenodd" clip-rule="evenodd" d="M31.2002 54.8001V76.8001H63.4002V54.8001L47.3002 40.2001L31.2002 54.8001Z" fill="#C8102E"/>
    <path fill-rule="evenodd" clip-rule="evenodd" d="M94.1001 43.2V96.7C94.1001 101 90.7001 104.4 86.4001 104.4H8.3001C4.0001 104.4 0.600098 101 0.600098 96.7V43.2C0.600098 41 1.5001 38.9 3.2001 37.5L42.3001 2.60002C45.2001 2.44379e-05 49.6001 2.44379e-05 52.6001 2.60002L91.7001 37.5C93.2001 38.9 94.1001 41 94.1001 43.2ZM47.3001 14.6L12.2001 46.1V92.9H82.4001V46.1L47.3001 14.6Z" fill="#C8102E"/>
    <path d="M1.80029 158.4V147.3C3.00029 147.1 3.90029 146.8 4.60029 146.4C5.30029 145.9 5.90029 145 6.50029 143.5C7.10029 142.1 7.50029 140 7.80029 137.4L9.60029 121.4H31.8003V146.8H34.6003V158.4H27.9003V152.6H8.40029V158.4H1.80029ZM14.3003 137.8C13.9003 141.8 12.6003 144.8 10.5003 146.8H25.0003V127.3H15.5003L14.3003 137.8Z" fill="#C8102E"/>
    <path d="M57.5003 149.7C55.3003 152 52.4003 153.1 48.8003 153.1C45.2003 153.1 42.3003 152 40.1003 149.7C37.9003 147.4 36.8003 144.6 36.8003 141.2C36.8003 137.8 37.9003 135 40.1003 132.8C42.3003 130.5 45.2003 129.4 48.8003 129.4C52.4003 129.4 55.3003 130.5 57.5003 132.8C59.7003 135.1 60.8003 137.9 60.8003 141.2C60.8003 144.5 59.7003 147.4 57.5003 149.7ZM44.6003 146C45.6003 147.3 47.0003 147.9 48.8003 147.9C50.6003 147.9 52.0003 147.3 53.0003 146C54.0003 144.7 54.6003 143.2 54.6003 141.3C54.6003 139.5 54.1003 137.9 53.0003 136.6C51.9003 135.3 50.5003 134.7 48.8003 134.7C47.1003 134.7 45.6003 135.3 44.6003 136.6C43.6003 137.9 43.1003 139.4 43.1003 141.3C43.1003 143.1 43.6003 144.7 44.6003 146Z" fill="#C8102E"/>
    <path d="M92.0002 152.6H86.0002V137.9L80.0002 152.6H77.3002L71.2002 137.9V152.6H65.2002V130H73.0002L78.6002 143.5L84.1002 130H92.0002V152.6V152.6Z" fill="#C8102E"/>
    <path d="M116.8 153.2C112.7 153.2 109.8 151.8 107.8 149.1L111.5 145.8C112.7 147.6 114.4 148.5 116.4 148.5C117.9 148.5 119.2 148.1 120.2 147.2C121.3 146.3 122 145.1 122.3 143.6H113.2V139H122.3C122 137.5 121.3 136.3 120.2 135.5C119.1 134.7 117.9 134.3 116.4 134.3C114.4 134.3 112.7 135.2 111.5 136.9L107.8 133.6C109.7 130.9 112.7 129.5 116.8 129.5C120.3 129.5 123.1 130.6 125.4 132.8C127.7 135 128.8 137.9 128.8 141.3C128.8 144.8 127.7 147.6 125.4 149.9C123.2 152 120.3 153.2 116.8 153.2Z" fill="#C8102E"/>
    <path d="M155.4 152.6H148L142 143.9L139.3 146.8V152.6H133.3V130H139.3V140L147.9 129.9H155.2L146.2 140.2L155.4 152.6Z" fill="#C8102E"/>
    <path d="M177.3 149.7C175.1 152 172.2 153.1 168.6 153.1C165 153.1 162.1 152 159.9 149.7C157.7 147.4 156.6 144.6 156.6 141.2C156.6 137.8 157.7 135 159.9 132.8C162.1 130.5 165 129.4 168.6 129.4C172.2 129.4 175.1 130.5 177.3 132.8C179.5 135.1 180.6 137.9 180.6 141.2C180.6 144.5 179.5 147.4 177.3 149.7ZM164.4 146C165.4 147.3 166.8 147.9 168.6 147.9C170.4 147.9 171.8 147.3 172.8 146C173.8 144.7 174.4 143.2 174.4 141.3C174.4 139.5 173.9 137.9 172.8 136.6C171.7 135.3 170.3 134.7 168.6 134.7C166.9 134.7 165.4 135.3 164.4 136.6C163.4 137.9 162.9 139.4 162.9 141.3C162.8 143.1 163.3 144.7 164.4 146Z" fill="#C8102E"/>
    <path d="M182.9 153.2V148.3C183.8 148.3 184.6 147.7 185.1 146.6C185.7 145.5 186.1 143.6 186.5 140.9L188 129.9H206.3V152.5H200.3V135.1H193.1L192.3 141.6C191.8 145.6 190.8 148.5 189.3 150.3C187.9 152.2 185.7 153.2 182.9 153.2Z" fill="#C8102E"/>
    <path d="M231.4 149.7C229.2 152 226.3 153.1 222.7 153.1C219.1 153.1 216.2 152 214 149.7C211.8 147.4 210.7 144.6 210.7 141.2C210.7 137.8 211.8 135 214 132.8C216.2 130.5 219.1 129.4 222.7 129.4C226.3 129.4 229.2 130.5 231.4 132.8C233.6 135.1 234.7 137.9 234.7 141.2C234.7 144.5 233.6 147.4 231.4 149.7ZM218.5 146C219.5 147.3 220.9 147.9 222.7 147.9C224.5 147.9 225.9 147.3 226.9 146C227.9 144.7 228.5 143.2 228.5 141.3C228.5 139.5 228 137.9 226.9 136.6C225.8 135.3 224.4 134.7 222.7 134.7C221 134.7 219.5 135.3 218.5 136.6C217.5 137.9 217 139.4 217 141.3C216.9 143.1 217.4 144.7 218.5 146Z" fill="#C8102E"/>
    <path d="M256.6 130V135.2H245V152.6H239V130H256.6Z" fill="#C8102E"/>
    <path d="M266.1 152.6H260.4V130H266.4V143.7L275.7 130H281.7V152.6H275.7V138.4L266.1 152.6Z" fill="#C8102E"/>
    <path d="M286.8 130H292.8V136.1C292.8 137.6 293.2 138.7 294 139.4C294.8 140 296 140.4 297.6 140.4C299.4 140.4 301 140.1 302.1 139.5V130H308.1V152.6H302.1V144.2C300.4 145.1 298.2 145.6 295.5 145.6C292.4 145.6 290.2 145 288.9 143.7C287.5 142.4 286.9 140.6 286.9 138.1V130H286.8Z" fill="#C8102E"/>
    <path d="M319.9 152.6H313.9V130H319.9V138.4H329.3V130H335.3V152.6H329.3V143.6H319.9V152.6Z" fill="#C8102E"/>
    <path d="M360.4 149.7C358.2 152 355.3 153.1 351.7 153.1C348.1 153.1 345.2 152 343 149.7C340.8 147.4 339.7 144.6 339.7 141.2C339.7 137.8 340.8 135 343 132.8C345.2 130.5 348.1 129.4 351.7 129.4C355.3 129.4 358.2 130.5 360.4 132.8C362.6 135.1 363.7 137.9 363.7 141.2C363.7 144.5 362.6 147.4 360.4 149.7ZM347.4 146C348.4 147.3 349.8 147.9 351.6 147.9C353.4 147.9 354.8 147.3 355.8 146C356.8 144.7 357.4 143.2 357.4 141.3C357.4 139.5 356.9 137.9 355.8 136.6C354.7 135.3 353.3 134.7 351.6 134.7C349.9 134.7 348.4 135.3 347.4 136.6C346.4 137.9 345.9 139.4 345.9 141.3C345.9 143.1 346.4 144.7 347.4 146Z" fill="#C8102E"/>
    <path d="M385.6 130V135.2H374V152.6H368V130H385.6Z" fill="#C8102E"/>
    <path d="M408.6 149.7C406.4 152 403.5 153.1 399.9 153.1C396.3 153.1 393.4 152 391.2 149.7C389 147.4 387.9 144.6 387.9 141.2C387.9 137.8 389 135 391.2 132.8C393.4 130.5 396.3 129.4 399.9 129.4C403.5 129.4 406.4 130.5 408.6 132.8C410.8 135.1 411.9 137.9 411.9 141.2C411.9 144.5 410.8 147.4 408.6 149.7ZM395.6 146C396.6 147.3 398 147.9 399.8 147.9C401.6 147.9 403 147.3 404 146C405 144.7 405.6 143.2 405.6 141.3C405.6 139.5 405.1 137.9 404 136.6C402.9 135.3 401.5 134.7 399.8 134.7C398.1 134.7 396.6 135.3 395.6 136.6C394.6 137.9 394.1 139.4 394.1 141.3C394.1 143.1 394.6 144.7 395.6 146Z" fill="#C8102E"/>
    <path d="M450.4 152.6H442.9L436.9 143.9L434.2 146.8V152.6H428.2V130H434.2V140L442.8 129.9H450.1L441.1 140.2L450.4 152.6Z" fill="#C8102E"/>
    <path d="M472.3 149.7C470.1 152 467.2 153.1 463.6 153.1C460 153.1 457.1 152 454.9 149.7C452.7 147.4 451.6 144.6 451.6 141.2C451.6 137.8 452.7 135 454.9 132.8C457.1 130.5 460 129.4 463.6 129.4C467.2 129.4 470.1 130.5 472.3 132.8C474.5 135.1 475.6 137.9 475.6 141.2C475.6 144.5 474.5 147.4 472.3 149.7ZM459.3 146C460.3 147.3 461.7 147.9 463.5 147.9C465.3 147.9 466.7 147.3 467.7 146C468.7 144.7 469.3 143.2 469.3 141.3C469.3 139.5 468.8 137.9 467.7 136.6C466.6 135.3 465.2 134.7 463.5 134.7C461.8 134.7 460.3 135.3 459.3 136.6C458.3 137.9 457.8 139.4 457.8 141.3C457.8 143.1 458.3 144.7 459.3 146Z" fill="#C8102E"/>
    <path d="M506.7 152.6H500.7V137.9L494.7 152.6H492L485.9 137.9V152.6H479.9V130H487.7L493.3 143.5L498.8 130H506.7V152.6V152.6Z" fill="#C8102E"/>
    <path d="M520.4 129.4C522.8 129.4 524.8 130.6 526.4 132.9V121.4H532.4V132.9C534 130.6 536 129.5 538.4 129.5C541 129.5 543 130.6 544.7 132.7C546.4 134.8 547.1 137.7 547.1 141.4C547.1 145.1 546.3 148 544.7 150.1C543.1 152.2 541 153.3 538.4 153.3C535.9 153.3 533.9 152.1 532.4 149.8V161.3H526.4V149.8C524.9 152.1 522.9 153.3 520.4 153.3C517.8 153.3 515.8 152.2 514.1 150.1C512.5 148 511.7 145.1 511.7 141.4C511.7 137.7 512.5 134.8 514.1 132.7C515.7 130.5 517.8 129.4 520.4 129.4ZM522.3 134.7C521 134.7 519.9 135.3 519 136.5C518.1 137.7 517.7 139.3 517.7 141.3C517.7 143.2 518.1 144.8 519 146C519.9 147.2 521 147.8 522.3 147.8C523.1 147.8 523.9 147.6 524.6 147C525.4 146.5 526 145.9 526.4 145.2V137.2C526 136.5 525.4 135.9 524.6 135.4C523.8 134.9 523 134.7 522.3 134.7ZM536.4 147.9C537.8 147.9 538.9 147.3 539.7 146.1C540.5 144.9 541 143.3 541 141.3C541 139.4 540.6 137.8 539.7 136.6C538.9 135.4 537.7 134.8 536.4 134.8C535.6 134.8 534.9 135 534.1 135.6C533.3 136.1 532.7 136.7 532.3 137.4V145.4C532.7 146.1 533.3 146.7 534.1 147.2C534.9 147.6 535.7 147.9 536.4 147.9Z" fill="#C8102E"/>
    <path d="M571.3 149.7C569.1 152 566.2 153.1 562.6 153.1C559 153.1 556.1 152 553.9 149.7C551.7 147.4 550.6 144.6 550.6 141.2C550.6 137.8 551.7 135 553.9 132.8C556.1 130.5 559 129.4 562.6 129.4C566.2 129.4 569.1 130.5 571.3 132.8C573.5 135.1 574.6 137.9 574.6 141.2C574.6 144.5 573.4 147.4 571.3 149.7ZM558.3 146C559.3 147.3 560.7 147.9 562.5 147.9C564.3 147.9 565.7 147.3 566.7 146C567.7 144.7 568.3 143.2 568.3 141.3C568.3 139.5 567.8 137.9 566.7 136.6C565.6 135.3 564.2 134.7 562.5 134.7C560.8 134.7 559.3 135.3 558.3 136.6C557.3 137.9 556.8 139.4 556.8 141.3C556.8 143.1 557.3 144.7 558.3 146Z" fill="#C8102E"/>
    <path d="M591.9 153.2C589.1 153.2 586.7 152 584.9 149.7V161.2H578.9V130H584.9V132.9C586.7 130.6 589 129.5 591.9 129.5C594.9 129.5 597.3 130.6 599.1 132.7C601 134.8 601.9 137.7 601.9 141.4C601.9 145.1 601 148 599.1 150.1C597.3 152.1 594.8 153.2 591.9 153.2ZM590 147.9C591.7 147.9 593.1 147.3 594.1 146.1C595.1 144.9 595.7 143.3 595.7 141.3C595.7 139.4 595.2 137.8 594.1 136.6C593 135.4 591.7 134.8 590 134.8C589 134.8 588.1 135 587.1 135.6C586.1 136.2 585.4 136.7 584.9 137.4V145.4C585.4 146.1 586.1 146.7 587.1 147.2C588.1 147.6 589.1 147.9 590 147.9Z" fill="#C8102E"/>
    <path d="M616.4 152.6H610.4V135.2H604.1V130H622.8V135.2H616.5V152.6H616.4Z" fill="#C8102E"/>
    <path d="M646.1 152.6H640.1V150.3C638.5 152.2 636.101 153.2 632.901 153.2C630.901 153.2 629.001 152.5 627.401 151.2C625.801 149.9 625 148 625 145.7C625 143.3 625.801 141.4 627.401 140.2C629.001 139 630.801 138.4 632.901 138.4C636.101 138.4 638.5 139.3 640.1 141.2V138.2C640.1 137 639.601 136.1 638.701 135.4C637.801 134.7 636.6 134.4 635.1 134.4C632.6 134.4 630.4 135.3 628.5 137.1L626.3 133.1C629 130.7 632.301 129.5 636.201 129.5C639.101 129.5 641.5 130.2 643.3 131.5C645.1 132.8 646.1 135 646.1 138.1V152.6V152.6ZM635.3 149.1C637.5 149.1 639.1 148.4 640.1 147.1V144.3C639.1 143 637.5 142.3 635.3 142.3C634.1 142.3 633.1 142.6 632.3 143.2C631.5 143.8 631.1 144.6 631.1 145.7C631.1 146.7 631.5 147.5 632.3 148.1C633.1 148.8 634.1 149.1 635.3 149.1Z" fill="#C8102E"/>
</svg>