<svg xmlns="http://www.w3.org/2000/svg" id="Слой_1" data-name="Слой 1" viewBox="0 0 427.9 56.67"><polygon points="26.62 1.92 0 1.92 0 54.75 7.08 54.75 26.62 28.34 26.62 1.92" fill="#f47422"/><polygon points="46.17 1.92 46.16 1.92 26.63 28.33 26.62 28.34 26.62 54.75 70.44 54.75 70.44 1.92 46.17 1.92" fill="#243770"/><polygon points="35.24 24.16 37.41 24.16 37.4 35.62 48.43 24.18 51.23 24.18 42.99 32.56 51.56 43.37 48.85 43.37 41.48 34.06 37.4 38.2 37.39 43.35 35.22 43.35 35.24 24.16" fill="#fff"/><path d="M138.34,309.36a9,9,0,0,0-2.1-3,9.78,9.78,0,0,0-3.23-2,11.45,11.45,0,0,0-4.13-.73h-6.66v5l2.16,2.88v-5.83h4.49a8.84,8.84,0,0,1,3.29.6,7.25,7.25,0,0,1,2.51,1.62,7.33,7.33,0,0,1,1.59,2.41,7.78,7.78,0,0,1,.55,3v.05a7.89,7.89,0,0,1-.56,3,7.09,7.09,0,0,1-1.59,2.4,7.28,7.28,0,0,1-2.51,1.59,9.14,9.14,0,0,1-3.3.57h-4.49v-2.07h-2.16v4.07h6.66A11.24,11.24,0,0,0,133,322a10,10,0,0,0,3.24-2,9.1,9.1,0,0,0,2.1-3,9.69,9.69,0,0,0,.74-3.78v-.06a9.63,9.63,0,0,0-.73-3.77" transform="translate(-73.03 -272.42)" fill="#fff"/><polygon points="130.46 54.75 99.01 21.16 99.01 54.75 84.9 54.75 84.9 1.91 98.08 1.91 128.51 34.44 128.51 1.91 142.62 1.91 142.62 54.75 130.46 54.75" fill="#243870"/><polygon points="415.74 54.75 384.29 21.16 384.29 54.75 370.18 54.75 370.18 1.91 383.36 1.91 413.79 34.44 413.79 1.91 427.9 1.91 427.9 54.75 415.74 54.75" fill="#243870"/><polygon points="248.26 54.75 236.32 54.75 211.48 1.91 226.41 1.91 242.47 38.86 258.53 1.91 273.11 1.91 248.26 54.75" fill="#243870"/><rect x="278.77" y="1.91" width="14.17" height="52.83" fill="#243870"/><path d="M239.59,290.3H225.33c.86-3.95,2.87-8.79,6.53-12,5.3-4.59,12-5.92,21.44-5.92,9.61,0,17.15,1.4,22.47,5.92a19.46,19.46,0,0,1,7.32,15v33.84H268.92v-4.82a43.2,43.2,0,0,1-8.41,4.43c-4.46,1.76-9.27,2.32-15,2.32-6.82,0-11.12-2.34-15-5.15a15.73,15.73,0,0,1-6.36-12.75c0-6,1.22-10.23,7.23-13.05,5.5-2.58,12.11-3.05,20.71-3.05h16.83c0-6.73-4.06-13.73-15.34-13.73-7.9,0-12.06,4.55-14,8.94m13.48,13.31c-8.21.14-15,2.07-14.74,6.89.42,6.88,7.43,7.52,10.42,7.52,7.51,0,13-1.35,16.17-3.87,3.38-2.72,3.51-6.56,3.54-10.54,0,0-11.86-.05-15.39,0" transform="translate(-73.03 -272.42)" fill="#243870"/><path d="M404.56,319.4c-9.73,0-15.63-5.58-16.39-13,0,0-.17-1.34-.19-2.37h47.43c0-9.67-2.55-17.27-7.54-22.67-5.47-6-13.37-8.94-23.71-8.94-9.36,0-16.78,2.7-22.13,8.21a26.65,26.65,0,0,0-8.27,20.07c0,8.94,2.92,15.91,8.76,21,5.47,4.88,12.89,7.38,22.25,7.38,8.39,0,15.32-2.08,20.92-6.14a24,24,0,0,0,8.75-12.58H420.26c-2.15,5.35-7.81,9-15.7,9m0-37.31c9.72,0,15.63,5.58,16.38,13H388.17c.76-7.42,6.66-13,16.39-13" transform="translate(-73.03 -272.42)" fill="#243870"/></svg>